<svg width="25" height="24" viewBox="0 0 25 24" fill="none" xmlns="http://www.w3.org/2000/svg">
<path opacity="0.4" d="M17.0802 22H7.74107C5.02191 22 2.80933 19.8311 2.80933 17.1646V11.8354C2.80933 9.16894 5.02191 7 7.74107 7H17.0802C19.7994 7 22.012 9.16894 22.012 11.8354V17.1646C22.012 19.8311 19.7994 22 17.0802 22" fill="#8D8D8D"/>
<path d="M16.2059 10C15.7903 10 15.453 9.67634 15.453 9.27754V6.35689C15.453 4.75111 14.092 3.44491 12.4197 3.44491C11.6498 3.44491 10.8418 3.7416 10.2667 4.28778C9.6905 4.83588 9.37131 5.56508 9.3683 6.34341V9.27754C9.3683 9.67634 9.03104 10 8.61548 10C8.19993 10 7.86267 9.67634 7.86267 9.27754V6.35689C7.86769 5.17303 8.34548 4.08067 9.20669 3.26285C10.0669 2.44311 11.1791 2.03179 12.4227 2C14.9221 2 16.9587 3.95449 16.9587 6.35689V9.27754C16.9587 9.67634 16.6214 10 16.2059 10" fill="#8D8D8D"/>
</svg>
