<svg width="25" height="24" viewBox="0 0 25 24" fill="none" xmlns="http://www.w3.org/2000/svg">
<path d="M9.82794 20.5204V17.6084C9.82793 16.8705 10.4666 16.271 11.2577 16.2664H14.1626C14.9572 16.2664 15.6014 16.8672 15.6014 17.6084V17.6084V20.5119C15.6014 21.1519 16.155 21.6721 16.8412 21.6767H18.823C19.7485 21.679 20.637 21.3376 21.2924 20.7279C21.9477 20.1183 22.316 19.2904 22.316 18.4271V10.1554C22.316 9.45807 21.9846 8.79659 21.4111 8.34917L14.6784 3.32707C13.5015 2.44865 11.8206 2.47703 10.6786 3.3946L4.09067 8.34917C3.49006 8.7834 3.13108 9.44685 3.11334 10.1554V18.4187C3.11334 20.2181 4.67723 21.6767 6.60638 21.6767H8.54294C8.87331 21.679 9.19097 21.5581 9.42543 21.341C9.65989 21.1239 9.79175 20.8285 9.79174 20.5204H9.82794Z" fill="#C67C4E"/>
</svg>
