<svg width="25" height="24" viewBox="0 0 25 24" fill="none" xmlns="http://www.w3.org/2000/svg">
<path d="M20.1484 11.6453C19.4101 10.7923 19.0746 10.0531 19.0746 8.79716V8.37013C19.0746 6.73354 18.6939 5.67907 17.8662 4.62459C16.5906 2.98699 14.443 2 12.3407 2H12.2513C10.1931 2 8.11291 2.94167 6.81514 4.5128C5.94226 5.58842 5.51737 6.68822 5.51737 8.37013V8.79716C5.51737 10.0531 5.20398 10.7923 4.4436 11.6453C3.88412 12.2738 3.70532 13.0815 3.70532 13.9557C3.70532 14.8309 3.99561 15.6598 4.5782 16.3336C5.33858 17.1413 6.41235 17.6569 7.50922 17.7466C9.09728 17.9258 10.6853 17.9933 12.2965 17.9933C13.9066 17.9933 15.4947 17.8805 17.0838 17.7466C18.1796 17.6569 19.2534 17.1413 20.0138 16.3336C20.5954 15.6598 20.8867 14.8309 20.8867 13.9557C20.8867 13.0815 20.7079 12.2738 20.1484 11.6453" fill="#8D8D8D"/>
<path opacity="0.4" d="M14.3261 19.2284C13.8209 19.1216 10.7422 19.1216 10.2369 19.2284C9.80503 19.3271 9.33795 19.5567 9.33795 20.0602C9.36306 20.5406 9.64733 20.9647 10.0411 21.2336L10.0401 21.2346C10.5493 21.6273 11.147 21.8771 11.7728 21.9668C12.1063 22.0121 12.4458 22.0101 12.7913 21.9668C13.4161 21.8771 14.0137 21.6273 14.523 21.2346L14.522 21.2336C14.9157 20.9647 15.2 20.5406 15.2251 20.0602C15.2251 19.5567 14.758 19.3271 14.3261 19.2284" fill="#8D8D8D"/>
</svg>
